<svg id="Layer_3" data-name="Layer 3" xmlns="http://www.w3.org/2000/svg" xmlns:xlink="http://www.w3.org/1999/xlink" viewBox="0 0 662.27588 611.50556"><defs><style>.cls-1{fill:#0051c5;}.cls-2{fill:url(#linear-gradient);}</style><linearGradient id="linear-gradient" x1="425.19702" y1="323.7028" x2="425.19702" y2="724.29785" gradientUnits="userSpaceOnUse"><stop offset="0" stop-color="#4fb0f4"/><stop offset="0.30283" stop-color="#3f9cea"/><stop offset="0.91924" stop-color="#1569d2"/><stop offset="1" stop-color="#0f62ce"/></linearGradient></defs><polygon class="cls-1" points="611.711 273.238 558.196 240.034 558.154 163.586 645.84 215.582 611.711 273.238"/><polygon class="cls-1" points="50.647 273.238 104.163 240.034 104.205 163.586 16.518 215.582 50.647 273.238"/><path class="cls-2" d="M722.835,724.29785H127.55908a33.49979,33.49979,0,0,1-33.5-33.5V357.20264a33.50011,33.50011,0,0,1,55.39356-25.356L404.64551,552.19629a31.62827,31.62827,0,0,0,41.10254,0L700.94141,331.84668a33.5,33.5,0,0,1,55.39355,25.356V690.79785A33.49947,33.49947,0,0,1,722.835,724.29785Zm-561.77588-67H689.335V430.38867L489.53516,602.90723a98.44415,98.44415,0,0,1-128.67676,0h0L161.05908,430.38867Z" transform="translate(-94.05908 -112.79229)"/><polygon class="cls-1" points="593.833 124.076 535.192 89.26 535.216 247.4 438.702 330.74 210.736 146.591 210.736 318.972 127.954 247.497 127.954 78.245 207.242 31.783 383.02 173.328 451.075 228.136 455.442 231.654 455.442 89.769 397.675 124.052 397.675 58.229 440.279 32.924 495.742 0 495.766 0 495.766 0.024 551.205 32.924 593.833 58.229 593.833 124.076"/></svg>
