<svg id="Layer_5" data-name="Layer 5" xmlns="http://www.w3.org/2000/svg" viewBox="0 0 534.06006 74.32001"><defs><style>.cls-1{fill:none;}.cls-2{fill:#0051c5;}.cls-3{fill:#279ae0;}</style></defs><path class="cls-1" d="M664.67164,415.946h-9.00836v13.89886h9.00836C674.36592,429.84489,674.36592,415.946,664.67164,415.946Z" transform="translate(-158.16682 -388.03685)"/><path class="cls-2" d="M640.13685,401.61686v27.6l12.38,12.56,3.15,3.19v-1.91l1.51-1.34h.01l.99-.88s20.09-.91,17.78.35c6.84-2.54,11.02-8.81,11.02-19.58C687.12684,396.03685,656.67683,402.32689,640.13685,401.61686Zm24.53,28.23h-9v-13.9h9C674.36683,415.94688,674.36683,429.84684,664.66682,429.84684Zm-24.53,5.91v26.6h15.53v-10.89Z" transform="translate(-158.16682 -388.03685)"/><polygon class="cls-2" points="534.06 74.32 514.64 74.32 497.5 56.93 494.35 53.74 499.01 53.68 499.02 53.68 513.09 53.48 513.72 54.11 534.06 74.32"/><path class="cls-2" d="M675.95472,441.19066c-.298.11084-.59369.22515-.90173.32183A4.42268,4.42268,0,0,0,675.95472,441.19066Z" transform="translate(-158.16682 -388.03685)"/><path class="cls-2" d="M658.07319,443.05668h-2.40991S656.5948,443.06981,658.07319,443.05668Z" transform="translate(-158.16682 -388.03685)"/><path class="cls-2" d="M675.95472,441.19066c2.311-1.268-17.7738-.35785-17.7738-.35785l-2.51764,2.22387C661.31365,442.97342,669.90922,443.13622,675.95472,441.19066Z" transform="translate(-158.16682 -388.03685)"/><path class="cls-3" d="M199.46687,388.03685v45.79c-2.67-3.93006-15.88-27.58-18.53-32.22h-22.77l8.19,3.66,4.7,8.13995,10.66,18.51v-.05c1.23,2.16,2.49,4.34,3.74,6.48l.09.16.11.2.11.2c.13.23.29.51.48.85.06.1.13.21.19.32995l.04.07c.05.09.11.19.16.28l.01.02a1.49327,1.49327,0,0,1,.08.12994c.06.11005.12994.23005.2.35l.84,1.47q.285.51.6,1.05c.35.58.68,1.15,1,1.73.33.6.69,1.21,1.05,1.84.17005.28.33.56.48.83,1.41,2.47,2.92,5.09,4.25,7.42.46.78.9,1.55,1.33,2.3.13995.25.28.5.42.73.13.24.27.47.39.69.15.27.3.53.44.77.77,1.34,1.29,2.26,1.43994,2.52.02.03.03.04.03.05a.0098.0098,0,0,0,.01.01h15.54v-74.31Zm-33.11,26.43v47.88h15.36005v-21.28Zm12.06,11.69-1.09-1.88995-2.14-3.71-4.13-7.15,10.66,18.51v-.06Z" transform="translate(-158.16682 -388.03685)"/><path class="cls-3" d="M264.50685,416.02684v-14.41h-42.3v60.74h42.3v-14.5h-26.77v-9.09h24.63v-13.3h-24.63v-9.44Z" transform="translate(-158.16682 -388.03685)"/><path class="cls-3" d="M324.56685,401.61686h-17.84l-10.64,20.76-10.38-20.76h-17.93l17.07,30.46-17.07,30.28h17.93l10.38-20.67,10.64,20.67h17.84l-16.98-30.28Z" transform="translate(-158.16682 -388.03685)"/><path class="cls-3" d="M325.09687,401.53685v14.58h16.13v46.24h15.53v-46.24h16.12v-14.58Z" transform="translate(-158.16682 -388.03685)"/><path class="cls-2" d="M399.68684,447.17686l-.19-54.47h-15.25v69.65h40.15v-15.18Z" transform="translate(-158.16682 -388.03685)"/><path class="cls-2" d="M475.76686,416.02684v-14.41h-42.22l-.08,60.74h42.3v-14.5h-26.77v-9.09h24.62v-13.3h-24.62v-9.44Z" transform="translate(-158.16682 -388.03685)"/><path class="cls-2" d="M483.53688,401.53685v14.58h16.12994v46.24h15.53v-46.24h16.13v-14.58Z" transform="translate(-158.16682 -388.03685)"/><path class="cls-2" d="M537.72688,401.53685v14.58h16.12994v46.24h15.52v-46.24h16.13v-14.58Z" transform="translate(-158.16682 -388.03685)"/><path class="cls-2" d="M634.20686,416.02684v-14.41h-42.3v60.74h42.3v-14.5h-26.77v-9.09h24.63v-13.3h-24.63v-9.44Z" transform="translate(-158.16682 -388.03685)"/><path class="cls-3" d="M199.20686,462.35685v-.01a.0098.0098,0,0,1-.01-.01c0-.00994-.01-.01995-.03-.05-.15-.26-.67-1.18-1.43994-2.52-.14-.24-.29-.5-.44-.77-.12006-.22-.26-.45-.39-.69-.14-.23-.28-.48-.42-.73-.42-.72-.86005-1.49006-1.33-2.3-1.33-2.33-2.84-4.95-4.25-7.42-.15-.27-.31-.55-.48-.83-.36-.63-.72-1.24-1.05-1.84-.32-.58-.65-1.15-1-1.73q-.31494-.54008-.6-1.05l-.84-1.47c-.07-.12-.13995-.24-.2-.35a1.49327,1.49327,0,0,0-.08-.12994l-.01-.02c-.05-.09-.11-.19-.16-.28l-.04-.07c-.06-.12-.13-.23-.19-.32995-.25-.45-.46-.81-.59-1.05l13.65,23.64.01.01Z" transform="translate(-158.16682 -388.03685)"/></svg>
