<svg xmlns="http://www.w3.org/2000/svg" viewBox="0 0 717.9058 148.58812"><defs><style>.cls-1{fill:#fff;}</style></defs><g id="Layer_5" data-name="Layer 5"><path class="cls-1" d="M734.69,411.05v27.6l12.38,12.56,3.15,3.19v-1.91l1.51-1.34h.01l.99-.88s20.09-.91,17.78.35c6.84-2.54,11.02-8.81,11.02-19.58C781.68,405.47,751.23,411.76,734.69,411.05Zm24.53,28.23h-9v-13.9h9C768.92,425.38,768.92,439.28,759.22,439.28Zm-24.53,5.91v26.6h15.53V460.9Z" transform="translate(-68.87423 -350.90279)"/><polygon class="cls-1" points="717.906 120.887 698.486 120.887 681.346 103.497 678.196 100.307 682.856 100.247 682.866 100.247 696.936 100.047 697.566 100.677 717.906 120.887"/><path class="cls-1" d="M770.50787,450.62378c-.298.11084-.59369.22516-.90173.32184A4.42316,4.42316,0,0,0,770.50787,450.62378Z" transform="translate(-68.87423 -350.90279)"/><path class="cls-1" d="M752.62634,452.48981h-2.40991S751.148,452.50293,752.62634,452.48981Z" transform="translate(-68.87423 -350.90279)"/><path class="cls-1" d="M770.50787,450.62378c2.311-1.268-17.7738-.35785-17.7738-.35785l-2.51764,2.22388C755.8668,452.40654,764.46237,452.56934,770.50787,450.62378Z" transform="translate(-68.87423 -350.90279)"/><path class="cls-1" d="M294.02,397.47v45.79c-2.67-3.93-15.88-27.58-18.53-32.22H252.72l8.19,3.66,4.7,8.14,10.66,18.51v-.05c1.23,2.16,2.49,4.34,3.74,6.48l.09.16.11.2.11.2c.13.23.29.51.48.85.06.1.13.21.19.33l.04.07c.05.09.11.19.16.28l.01.02a1.492,1.492,0,0,1,.08.13c.06.11.12994.23.2.35l.84,1.47q.285.51.6,1.05c.35.58.68,1.15,1,1.73.33.6.69,1.21,1.05,1.84.17.28.33.56.48.83,1.41,2.47,2.92,5.09,4.25,7.42.46.78.9,1.55,1.33,2.3.13995.25.28.5.42.73.13.24.27.47.39.69.15.27.3.53.44.77.77,1.34,1.29,2.26,1.43994,2.52.02.03.03.04.03.05a.0098.0098,0,0,0,.01.01H309.3V397.47ZM260.91,423.9v47.88H276.27V450.5Zm12.06,11.69-1.09-1.89-2.14-3.71-4.13-7.15,10.66,18.51v-.06Z" transform="translate(-68.87423 -350.90279)"/><path class="cls-1" d="M359.06,425.46V411.05h-42.3v60.74h42.3v-14.5H332.29V448.2h24.63V434.9H332.29v-9.44Z" transform="translate(-68.87423 -350.90279)"/><path class="cls-1" d="M419.12,411.05H401.28l-10.64,20.76-10.38-20.76H362.33l17.07,30.46-17.07,30.28h17.93l10.38-20.67,10.64,20.67h17.84l-16.98-30.28Z" transform="translate(-68.87423 -350.90279)"/><path class="cls-1" d="M419.65,410.97v14.58h16.13v46.24h15.53V425.55h16.12V410.97Z" transform="translate(-68.87423 -350.90279)"/><path class="cls-1" d="M494.24,456.61l-.19-54.47H478.8v69.65h40.15V456.61Z" transform="translate(-68.87423 -350.90279)"/><path class="cls-1" d="M570.32,425.46V411.05H528.1l-.08,60.74h42.3v-14.5H543.55V448.2h24.62V434.9H543.55v-9.44Z" transform="translate(-68.87423 -350.90279)"/><path class="cls-1" d="M578.09,410.97v14.58H594.22v46.24h15.53V425.55h16.13V410.97Z" transform="translate(-68.87423 -350.90279)"/><path class="cls-1" d="M632.28,410.97v14.58H648.41v46.24h15.52V425.55h16.13V410.97Z" transform="translate(-68.87423 -350.90279)"/><path class="cls-1" d="M728.76,425.46V411.05h-42.3v60.74h42.3v-14.5H701.99V448.2h24.63V434.9H701.99v-9.44Z" transform="translate(-68.87423 -350.90279)"/><path class="cls-1" d="M293.76,471.79v-.01a.0098.0098,0,0,1-.01-.01c0-.01-.01-.02-.03-.05-.15-.26-.67-1.18-1.43994-2.52-.14-.24-.29-.5-.44-.77-.12006-.22-.26-.45-.39-.69-.14-.23-.28-.48-.42-.73-.42-.72-.86005-1.49-1.33-2.3-1.33-2.33-2.84-4.95-4.25-7.42-.15-.27-.31-.55-.48-.83-.36-.63-.72-1.24-1.05-1.84-.32-.58-.65-1.15-1-1.73q-.31494-.54006-.6-1.05l-.84-1.47c-.07-.12-.13995-.24-.2-.35a1.492,1.492,0,0,0-.08-.13l-.01-.02c-.05-.09-.11-.19-.16-.28l-.04-.07c-.06-.12-.13-.23-.19-.33-.25-.45-.46-.81-.59-1.05l13.65,23.64.01.01Z" transform="translate(-68.87423 -350.90279)"/></g><g id="Layer_3" data-name="Layer 3"><polygon class="cls-1" points="0 81.577 19.633 81.577 19.633 44.804 0 56.426 0 81.577"/><polygon class="cls-1" points="164.457 81.577 144.824 81.577 144.824 44.804 164.457 56.426 164.457 81.577"/><path class="cls-1" d="M139.37656,468.2043,68.87423,407.32836v92.16255H233.3313V407.32836l-70.50237,60.876A17.94248,17.94248,0,0,1,139.37656,468.2043Z" transform="translate(-68.87423 -350.90279)"/><polygon class="cls-1" points="155.675 34.743 139.255 24.994 139.262 69.275 112.236 92.611 48.403 41.047 48.403 89.316 25.223 69.302 25.223 21.91 47.425 8.9 96.645 48.534 115.701 63.881 116.924 64.866 116.924 25.137 100.748 34.736 100.748 16.305 112.678 9.219 128.208 0 128.215 0 128.215 0.007 143.739 9.219 155.675 16.305 155.675 34.743"/></g></svg>
