<svg viewBox="0 0 146.78 138.88" fill="none" xmlns="http://www.w3.org/2000/svg">
  <defs>
    <linearGradient id="faviconGradient" x1="83.41" y1="76.4" x2="69.15" y2="3.05" gradientUnits="userSpaceOnUse">
      <stop offset="0" stop-color="blue"/>
      <stop offset=".92" stop-color="#29abe2"/>
    </linearGradient>
  </defs>
  <g>
    <path fill="blue" d="M146.59,52.17c0-1.58-.78-3.07-2.09-3.98l-25.57-17.73-.06.09v9.46c0,.88.43,1.7,1.15,2.2l17.75,12.3c.22.15.35.39.35.66s-.12.52-.34.68l-20.28,14.86-42,30.46c-1.25.91-2.95.91-4.21,0l-41.99-30.45-20.29-14.87c-.21-.16-.34-.41-.33-.68,0-.27.13-.51.35-.66l17.92-12.43c.59-.41.94-1.08.94-1.79v-9.8l-.02-.03L2.86,47.79c-1.67,1.16-2.67,3.06-2.67,5.07l-.19,82.89c0,1.03.51,1.98,1.38,2.59.54.38,1.21.54,1.87.54h140.29c.66,0,1.32-.17,1.86-.54.88-.61,1.39-1.55,1.38-2.59l-.19-83.58ZM135.69,130.52c-41.47-.18-82.95-.37-124.42-.55-1.35,0-2.44-1.11-2.44-2.46.09-20.13.18-40.26.27-60.39l40.55,29.71c2.61,1.83,5.21,3.65,7.82,5.48l11.79,8.54c2.48,1.79,5.8,1.79,8.31-.02l11.75-8.52c2.61-1.83,5.22-3.65,7.83-5.48l40.55-29.71c.15,20.31.3,40.62.45,60.93.01,1.36-1.1,2.47-2.46,2.47Z"/>
    <path fill="url(#faviconGradient)" d="M108.31,39.09s.02,13.28.02,14.2c0,4.74.02,9.47.02,14.2l-6.48,5.32c-17.31-13.06-34.63-26.12-51.95-39.18.06,13.81.12,27.61.17,41.41-3.91-3.13-7.83-6.26-11.75-9.4V9.04c19.12,14.02,38.23,28.06,57.35,42.09.07-5.54.15-11.07.23-16.61.09-6.13.18-12.26.28-18.39-2.26.04-4.51.08-6.77.11,4.21-5.42,8.42-10.83,12.63-16.25,4.2,5.34,8.39,10.69,12.59,16.03-2.13.03-4.25.07-6.38.1.01,5.34.03,17.93.04,22.96Z"/>
  </g>
</svg>
